<?xml version="1.0" standalone="no"?>
<!DOCTYPE svg PUBLIC "-//W3C//DTD SVG 20010904//EN"
 "http://www.w3.org/TR/2001/REC-SVG-20010904/DTD/svg10.dtd">
<svg version="1.0" xmlns="http://www.w3.org/2000/svg"
 width="899.000000pt" height="899.000000pt" viewBox="0 0 899.000000 899.000000"
 preserveAspectRatio="xMidYMid meet">
<metadata>
Created by potrace 1.14, written by Peter Selinger 2001-2017
</metadata>
<g transform="translate(0.000000,899.000000) scale(0.100000,-0.100000)"
fill="#000000" stroke="none">
<path d="M5746 8433 c-1 -2 -42 -5 -92 -8 -49 -3 -96 -8 -104 -11 -8 -3 -35
-7 -60 -10 -64 -7 -74 -9 -85 -15 -5 -4 -48 -19 -95 -34 -47 -15 -89 -31 -95
-35 -5 -3 -30 -12 -55 -19 -51 -15 -171 -77 -182 -94 -4 -7 -8 -8 -8 -4 0 5
-13 -1 -29 -12 -16 -12 -34 -21 -39 -21 -5 0 -13 -7 -16 -16 -3 -8 -10 -12
-16 -9 -5 3 -10 1 -10 -4 0 -6 -4 -11 -10 -11 -15 0 -108 -69 -169 -125 -103
-96 -191 -185 -191 -193 0 -4 -10 -19 -22 -32 -34 -36 -178 -242 -178 -254 0
-3 -25 -58 -57 -123 -47 -99 -64 -146 -97 -268 -1 -5 -9 -35 -18 -65 -19 -66
-30 -121 -34 -175 -21 -265 -20 -314 1 -426 3 -13 7 -53 11 -89 6 -71 80 -315
119 -395 14 -27 45 -86 70 -130 25 -44 49 -89 54 -100 5 -11 21 -32 35 -47 14
-15 26 -29 26 -31 0 -2 15 -20 33 -39 17 -20 59 -67 92 -105 33 -39 74 -80 91
-92 16 -11 39 -29 50 -39 32 -29 187 -139 221 -156 17 -9 35 -20 38 -26 5 -9
-27 -28 -60 -35 -5 -2 -39 -21 -75 -44 -36 -23 -72 -44 -80 -48 -8 -4 -17 -9
-20 -12 -10 -11 -111 -71 -121 -71 -5 0 -9 -4 -9 -9 0 -5 -14 -12 -31 -16 -27
-6 -43 1 -120 54 -49 34 -94 61 -99 61 -6 0 -8 4 -5 10 3 6 0 10 -9 10 -8 0
-16 4 -18 8 -1 5 -67 40 -146 80 -78 39 -148 75 -155 79 -7 4 -14 8 -17 9 -3
0 -25 9 -50 20 -25 11 -77 31 -116 43 -44 14 -87 37 -110 57 -21 19 -40 34
-43 34 -3 0 -19 13 -36 28 -65 60 -253 169 -348 201 -55 19 -70 37 -40 48 21
8 35 18 75 56 16 15 32 27 34 27 10 0 154 142 154 152 0 5 8 16 18 26 54 54
111 153 177 307 23 54 63 218 71 290 10 96 12 236 4 260 -4 11 -10 52 -14 90
-6 62 -31 163 -56 220 -5 11 -15 38 -22 60 -7 22 -32 73 -55 113 -24 41 -43
78 -43 83 0 5 -5 9 -11 9 -5 0 -8 4 -5 8 3 5 -2 18 -12 28 -9 11 -42 48 -72
84 -74 87 -95 109 -160 161 -30 24 -57 46 -60 49 -17 17 -90 70 -98 70 -5 0
-45 20 -90 44 -45 24 -82 42 -82 39 0 -3 -6 -1 -12 5 -7 5 -29 13 -48 17 -19
3 -62 15 -95 25 -33 10 -78 22 -100 26 -61 10 -263 12 -304 3 -20 -4 -61 -10
-91 -13 -50 -5 -213 -54 -243 -73 -6 -4 -18 -8 -25 -9 -7 -1 -42 -21 -78 -43
-36 -23 -69 -41 -74 -41 -5 0 -14 -8 -19 -17 -6 -10 -11 -14 -11 -9 -1 26
-241 -208 -260 -254 -7 -16 -19 -30 -27 -30 -8 0 -12 -4 -9 -9 3 -5 -1 -14 -9
-21 -8 -7 -15 -19 -15 -26 0 -8 -4 -14 -9 -14 -9 0 -76 -144 -72 -156 2 -4 -1
-10 -6 -13 -10 -7 -43 -84 -49 -116 -2 -10 -6 -37 -9 -58 -4 -22 -10 -49 -15
-61 -20 -54 -30 -286 -15 -361 5 -22 9 -51 11 -65 1 -14 3 -25 4 -25 2 0 9
-33 15 -74 5 -40 24 -102 35 -116 5 -5 8 -12 9 -15 0 -17 59 -146 89 -195 69
-115 100 -155 232 -295 37 -38 205 -160 263 -190 27 -14 47 -29 45 -35 -1 -5
-6 -9 -10 -8 -5 2 -8 -1 -8 -7 0 -5 -18 -13 -40 -16 -22 -4 -37 -10 -35 -14 3
-5 -8 -14 -24 -21 -16 -7 -27 -17 -25 -21 3 -4 0 -8 -6 -8 -6 0 -26 -11 -44
-25 -18 -14 -36 -25 -40 -25 -4 0 -12 -4 -19 -10 -41 -33 -99 -85 -168 -153
-63 -61 -101 -88 -177 -126 -121 -60 -162 -84 -162 -94 0 -5 -5 -5 -10 -2 -6
3 -13 -1 -16 -9 -3 -9 -12 -16 -20 -16 -8 0 -14 -4 -14 -10 0 -5 -7 -10 -15
-10 -8 0 -15 -4 -15 -10 0 -5 -9 -10 -21 -10 -11 0 -17 -4 -14 -10 3 -5 -1
-10 -9 -10 -9 0 -16 -4 -16 -8 0 -4 -12 -13 -27 -19 -29 -13 -59 -31 -79 -48
-6 -5 -28 -23 -49 -40 -21 -16 -55 -47 -76 -67 -22 -21 -42 -38 -46 -38 -5 0
-19 -14 -32 -30 -13 -17 -27 -30 -31 -30 -11 0 -54 -36 -98 -84 -20 -22 -50
-53 -67 -70 -16 -17 -29 -34 -27 -38 1 -5 -6 -8 -15 -8 -9 0 -14 -3 -10 -6 3
-4 1 -12 -6 -19 -7 -6 -30 -33 -52 -59 -22 -26 -50 -59 -63 -72 -13 -13 -19
-24 -15 -24 4 -1 -2 -6 -14 -13 -12 -7 -21 -14 -20 -17 0 -3 -19 -38 -44 -78
-24 -40 -48 -81 -54 -90 -5 -10 -20 -32 -33 -50 -13 -17 -21 -32 -17 -32 3 0
-4 -10 -15 -22 -28 -29 -65 -99 -62 -115 2 -7 -2 -13 -8 -13 -5 0 -9 -3 -9 -7
1 -5 0 -10 -1 -13 -1 -3 -3 -12 -5 -20 -2 -8 -11 -33 -21 -55 -10 -22 -19 -44
-20 -50 -1 -5 -19 -49 -38 -97 -20 -49 -38 -105 -41 -125 -3 -21 -8 -49 -12
-63 -10 -41 -11 -43 -17 -85 -4 -23 -9 -52 -12 -65 -3 -14 -7 -40 -9 -58 -2
-18 -7 -37 -10 -43 -4 -5 -6 -38 -5 -72 5 -228 10 -307 19 -326 13 -23 72 -56
122 -68 60 -14 484 -6 529 10 8 3 31 8 50 11 56 8 77 14 99 25 11 6 29 11 40
11 12 0 21 4 21 9 0 5 11 12 24 15 13 3 31 8 38 11 10 4 19 -7 28 -35 7 -22
17 -40 22 -40 4 0 8 -6 8 -14 0 -20 116 -136 135 -136 9 0 18 -7 21 -15 4 -8
10 -12 15 -9 5 3 9 0 9 -5 0 -6 5 -11 11 -11 6 0 24 -9 40 -21 16 -11 29 -17
29 -14 0 4 11 0 25 -9 13 -9 33 -16 43 -16 10 0 23 -5 30 -12 7 -7 12 -9 12
-5 0 3 18 0 39 -8 22 -7 56 -16 76 -19 21 -4 41 -8 45 -11 4 -2 32 -7 61 -10
30 -3 77 -8 104 -11 28 -4 122 -8 210 -10 88 -1 163 -3 166 -3 15 -2 46 -38
43 -51 -1 -8 -5 -33 -9 -55 -4 -22 -9 -43 -11 -47 -4 -6 -15 -53 -30 -133 -10
-51 -12 -60 -14 -62 -3 -4 -4 -6 -19 -78 -8 -33 -15 -105 -17 -160 -6 -231 -6
-382 1 -414 10 -42 89 -124 147 -150 71 -33 163 -60 240 -72 93 -14 271 -18
340 -8 29 4 69 10 88 12 150 20 351 97 441 168 20 16 41 29 46 29 11 0 43 -37
43 -49 0 -5 4 -11 8 -13 4 -1 23 -24 42 -50 18 -27 37 -48 42 -48 4 0 8 -5 8
-11 0 -6 29 -40 65 -76 36 -36 65 -63 65 -60 0 3 15 -9 33 -26 54 -51 86 -77
97 -77 6 0 10 -4 10 -10 0 -5 5 -10 11 -10 11 0 87 -50 111 -73 14 -13 57 -34
72 -35 5 0 12 -4 15 -9 10 -15 187 -98 203 -95 3 1 12 -5 18 -13 7 -8 18 -15
26 -15 7 0 25 -5 41 -12 15 -6 33 -12 38 -14 6 -1 26 -8 45 -15 70 -24 88 -30
108 -31 6 -1 12 -5 12 -10 0 -5 4 -7 9 -4 5 3 27 -1 50 -9 22 -7 58 -17 79
-20 21 -3 53 -9 70 -14 17 -5 33 -7 36 -4 2 3 11 1 18 -3 7 -4 19 -9 28 -10
56 -6 113 -15 119 -18 3 -2 42 -7 85 -11 43 -4 88 -9 100 -11 127 -24 774 -24
1071 0 22 2 81 7 130 11 50 3 96 8 104 11 7 2 41 7 75 10 79 7 121 12 121 14
0 2 30 6 102 12 24 1 43 5 43 9 0 3 10 5 23 5 30 1 104 12 147 22 19 5 38 9
43 10 53 8 90 15 127 23 25 5 55 11 68 14 13 2 31 6 40 9 9 3 28 7 42 10 28 6
37 8 138 35 39 10 72 17 72 14 0 -3 6 -1 13 5 6 6 17 11 22 11 32 4 230 68
280 91 11 5 49 21 85 36 36 16 79 36 95 46 17 9 57 32 90 50 70 39 205 170
237 230 51 97 68 189 54 298 -4 30 -9 82 -11 115 -3 33 -8 92 -11 130 -7 74
-8 107 -6 142 2 20 6 21 55 15 67 -8 370 -8 422 0 121 19 232 76 263 135 12
22 18 451 8 503 -3 14 -8 36 -11 50 -3 14 -8 39 -10 55 -3 17 -12 64 -20 105
-9 41 -17 86 -19 100 -7 54 -61 204 -131 365 -7 17 -21 53 -31 80 -9 28 -23
57 -31 66 -7 8 -13 18 -13 22 0 4 -26 46 -57 95 -32 49 -69 107 -83 130 -14
23 -28 42 -32 42 -5 0 -8 4 -8 10 0 17 -67 113 -112 161 -162 175 -248 267
-283 303 -43 44 -316 255 -418 322 -34 22 -123 73 -197 112 -74 40 -142 76
-150 82 -17 10 -122 64 -130 65 -3 1 -22 9 -44 18 -21 9 -44 17 -51 17 -6 0
-15 3 -19 8 -4 4 -11 7 -16 7 -4 0 -21 11 -37 25 -15 14 -62 54 -103 89 -41
36 -81 70 -88 77 -6 7 -21 16 -32 19 -11 3 -20 11 -20 16 0 5 -5 9 -11 9 -6 0
-23 9 -38 19 -15 11 -54 34 -86 52 -33 18 -62 35 -65 39 -3 4 -32 20 -65 36
-33 17 -60 34 -60 39 0 6 36 34 80 64 89 59 158 112 163 123 2 5 8 8 13 8 18
0 71 51 196 186 108 117 123 136 123 145 0 4 13 27 29 51 15 24 40 63 54 88
60 104 82 144 83 149 0 3 4 13 7 21 8 19 74 202 92 255 7 22 15 58 18 80 3 22
8 51 11 65 2 14 7 46 11 72 3 26 9 67 14 92 9 48 7 302 -3 382 -6 51 -33 178
-43 204 -8 21 -13 42 -15 65 -1 11 -5 25 -8 30 -4 6 -10 23 -14 39 -10 41
-149 320 -179 359 -14 17 -34 43 -46 56 -11 13 -21 27 -21 30 0 3 -10 17 -22
31 -13 14 -41 48 -63 75 -50 64 -68 80 -173 160 -7 6 -21 17 -30 26 -52 47
-113 90 -154 108 -25 10 -49 24 -52 30 -4 6 -15 11 -25 11 -10 0 -24 6 -30 14
-7 8 -26 18 -42 21 -16 4 -29 10 -29 15 0 4 -8 10 -17 13 -10 3 -38 13 -63 22
-25 9 -54 19 -65 21 -11 2 -72 17 -135 33 -63 17 -137 33 -165 37 -47 6 -254
12 -259 7z"/>
</g>
</svg>
